<svg width="155" height="87" viewBox="0 0 155 87" fill="none" xmlns="http://www.w3.org/2000/svg">
<g filter="url(#filter0_d_4_208)">
<rect x="4" width="147" height="79" rx="17" fill="#00578C"/>
<path d="M84.6111 10.9546V18.1546M70.3891 10.9546V18.1546M61.5 25.3546H93.5M65.0556 14.5546H89.9444C91.9081 14.5546 93.5 16.1664 93.5 18.1546V43.3546C93.5 45.3428 91.9081 46.9546 89.9444 46.9546H65.0556C63.0919 46.9546 61.5 45.3428 61.5 43.3546V18.1546C61.5 16.1664 63.0919 14.5546 65.0556 14.5546Z" stroke="white" stroke-width="2" stroke-linecap="round" stroke-linejoin="round"/>
<path d="M50.4547 64.591H47.8184L51.8354 52.9546H55.0059L59.0172 64.591H56.3809L53.4661 55.6137H53.3752L50.4547 64.591ZM50.29 60.0171H56.5172V61.9375H50.29V60.0171Z" fill="white"/>
<path d="M63.8979 68.0455C63.1138 68.0455 62.4415 67.9375 61.8809 67.7216C61.324 67.5095 60.8809 67.2197 60.5513 66.8523C60.2218 66.4849 60.0078 66.072 59.9093 65.6137L62.1479 65.3125C62.2161 65.4868 62.324 65.6497 62.4718 65.8012C62.6195 65.9527 62.8146 66.0739 63.057 66.1648C63.3032 66.2595 63.6025 66.3069 63.9547 66.3069C64.4812 66.3069 64.915 66.1781 65.2559 65.9205C65.6006 65.6667 65.7729 65.2406 65.7729 64.6421V63.0455H65.6706C65.5646 63.2879 65.4055 63.5171 65.1934 63.733C64.9812 63.9489 64.7085 64.125 64.3752 64.2614C64.0418 64.3978 63.6441 64.466 63.182 64.466C62.5267 64.466 61.9301 64.3144 61.3922 64.0114C60.8581 63.7046 60.432 63.2368 60.1138 62.608C59.7994 61.9754 59.6422 61.1762 59.6422 60.2103C59.6422 59.2216 59.8032 58.3959 60.1252 57.733C60.4471 57.0701 60.8752 56.5739 61.4093 56.2444C61.9471 55.9148 62.5362 55.75 63.1763 55.75C63.665 55.75 64.074 55.8334 64.4036 56C64.7331 56.1629 64.9983 56.3675 65.199 56.6137C65.4036 56.8561 65.5608 57.0947 65.6706 57.3296H65.7615V55.8637H68.165V64.6762C68.165 65.4186 67.9831 66.0398 67.6195 66.5398C67.2559 67.0398 66.7521 67.4148 66.1081 67.6648C65.468 67.9186 64.7312 68.0455 63.8979 68.0455ZM63.949 62.6478C64.3392 62.6478 64.6687 62.5512 64.9377 62.358C65.2104 62.161 65.4187 61.8807 65.5627 61.5171C65.7104 61.1497 65.7843 60.7103 65.7843 60.1989C65.7843 59.6875 65.7123 59.2444 65.5684 58.8694C65.4244 58.4906 65.2161 58.197 64.9434 57.9887C64.6706 57.7803 64.3392 57.6762 63.949 57.6762C63.5513 57.6762 63.2161 57.7841 62.9434 58C62.6706 58.2122 62.4642 58.5076 62.324 58.8864C62.1839 59.2652 62.1138 59.7027 62.1138 60.1989C62.1138 60.7027 62.1839 61.1383 62.324 61.5057C62.468 61.8694 62.6744 62.1516 62.9434 62.3523C63.2161 62.5493 63.5513 62.6478 63.949 62.6478Z" fill="white"/>
<path d="M74.0684 64.7614C73.1706 64.7614 72.3979 64.5796 71.7502 64.216C71.1062 63.8485 70.61 63.3296 70.2615 62.6591C69.9131 61.9849 69.7388 61.1875 69.7388 60.2671C69.7388 59.3694 69.9131 58.5815 70.2615 57.9035C70.61 57.2254 71.1006 56.697 71.7331 56.3182C72.3695 55.9394 73.1157 55.75 73.9718 55.75C74.5475 55.75 75.0835 55.8428 75.5797 56.0285C76.0797 56.2103 76.5153 56.4849 76.8865 56.8523C77.2615 57.2197 77.5532 57.6819 77.7615 58.2387C77.9699 58.7917 78.074 59.4394 78.074 60.1819V60.8466H70.7047V59.3466H75.7956C75.7956 58.9982 75.7199 58.6894 75.5684 58.4205C75.4168 58.1516 75.2066 57.9413 74.9377 57.7898C74.6725 57.6345 74.3638 57.5569 74.0115 57.5569C73.6441 57.5569 73.3184 57.6421 73.0343 57.8125C72.754 57.9792 72.5343 58.2046 72.3752 58.4887C72.2161 58.769 72.1346 59.0815 72.1309 59.4262V60.8523C72.1309 61.2841 72.2104 61.6572 72.3695 61.9716C72.5324 62.286 72.7615 62.5285 73.057 62.6989C73.3524 62.8694 73.7028 62.9546 74.1081 62.9546C74.3771 62.9546 74.6233 62.9167 74.8468 62.841C75.0703 62.7652 75.2615 62.6516 75.4206 62.5C75.5797 62.3485 75.7009 62.1629 75.7843 61.9432L78.0229 62.091C77.9093 62.6288 77.6763 63.0985 77.324 63.5C76.9756 63.8978 76.5248 64.2084 75.9718 64.4319C75.4225 64.6516 74.7881 64.7614 74.0684 64.7614Z" fill="white"/>
<path d="M82.074 59.5455V64.591H79.6536V55.8637H81.9604V57.4035H82.0627C82.2559 56.8959 82.5797 56.4944 83.0343 56.1989C83.4888 55.8997 84.04 55.75 84.6877 55.75C85.2937 55.75 85.8221 55.8826 86.2729 56.1478C86.7237 56.4129 87.074 56.7917 87.324 57.2841C87.574 57.7728 87.699 58.3561 87.699 59.0341V64.591H85.2786V59.466C85.2824 58.9319 85.146 58.5152 84.8695 58.216C84.593 57.9129 84.2123 57.7614 83.7275 57.7614C83.4017 57.7614 83.1138 57.8315 82.8638 57.9716C82.6176 58.1118 82.4244 58.3163 82.2843 58.5853C82.1479 58.8504 82.0778 59.1705 82.074 59.5455Z" fill="white"/>
<path d="M92.8226 64.733C92.1597 64.733 91.5594 64.5625 91.0215 64.2216C90.4874 63.8769 90.0632 63.3713 89.7488 62.7046C89.4382 62.0341 89.2828 61.2122 89.2828 60.2387C89.2828 59.2387 89.4438 58.4072 89.7658 57.7444C90.0878 57.0777 90.5158 56.5796 91.0499 56.25C91.5878 55.9167 92.1768 55.75 92.8169 55.75C93.3056 55.75 93.7128 55.8334 94.0385 56C94.3681 56.1629 94.6332 56.3675 94.834 56.6137C95.0385 56.8561 95.1938 57.0947 95.2999 57.3296H95.3738V52.9546H97.7885V64.591H95.4022V63.1932H95.2999C95.1863 63.4357 95.0253 63.6762 94.8169 63.9148C94.6124 64.1497 94.3453 64.3447 94.0158 64.5C93.69 64.6553 93.2923 64.733 92.8226 64.733ZM93.5897 62.8069C93.9798 62.8069 94.3094 62.7008 94.5783 62.4887C94.851 62.2728 95.0594 61.9716 95.2033 61.5853C95.351 61.1989 95.4249 60.7463 95.4249 60.2273C95.4249 59.7084 95.3529 59.2576 95.209 58.875C95.065 58.4925 94.8567 58.197 94.584 57.9887C94.3113 57.7803 93.9798 57.6762 93.5897 57.6762C93.1919 57.6762 92.8567 57.7841 92.584 58C92.3113 58.216 92.1048 58.5152 91.9647 58.8978C91.8245 59.2803 91.7544 59.7235 91.7544 60.2273C91.7544 60.7349 91.8245 61.1838 91.9647 61.5739C92.1086 61.9603 92.315 62.2633 92.584 62.483C92.8567 62.6989 93.1919 62.8069 93.5897 62.8069Z" fill="white"/>
<path d="M102.267 64.7557C101.71 64.7557 101.214 64.6591 100.779 64.466C100.343 64.269 99.9983 63.9792 99.7445 63.5966C99.4945 63.2103 99.3695 62.7292 99.3695 62.1535C99.3695 61.6686 99.4585 61.2614 99.6365 60.9319C99.8146 60.6023 100.057 60.3372 100.364 60.1364C100.671 59.9357 101.019 59.7841 101.409 59.6819C101.803 59.5796 102.216 59.5076 102.648 59.466C103.155 59.4129 103.565 59.3637 103.875 59.3182C104.186 59.269 104.411 59.197 104.551 59.1023C104.691 59.0076 104.762 58.8675 104.762 58.6819V58.6478C104.762 58.2879 104.648 58.0095 104.421 57.8125C104.197 57.6156 103.879 57.5171 103.466 57.5171C103.03 57.5171 102.684 57.6137 102.426 57.8069C102.169 57.9963 101.998 58.2349 101.915 58.5228L99.6763 58.341C99.79 57.8107 100.013 57.3523 100.347 56.966C100.68 56.5758 101.11 56.2766 101.637 56.0682C102.167 55.8561 102.78 55.75 103.477 55.75C103.962 55.75 104.426 55.8069 104.869 55.9205C105.316 56.0341 105.712 56.2103 106.057 56.4489C106.405 56.6875 106.68 56.9944 106.881 57.3694C107.082 57.7406 107.182 58.1857 107.182 58.7046V64.591H104.887V63.3807H104.818C104.678 63.6535 104.491 63.894 104.256 64.1023C104.021 64.3069 103.739 64.4678 103.409 64.5853C103.08 64.6989 102.699 64.7557 102.267 64.7557ZM102.96 63.0853C103.316 63.0853 103.631 63.0152 103.904 62.875C104.176 62.7311 104.39 62.5379 104.546 62.2955C104.701 62.0531 104.779 61.7785 104.779 61.4716V60.5455C104.703 60.5947 104.599 60.6402 104.466 60.6819C104.337 60.7197 104.191 60.7557 104.029 60.7898C103.866 60.8201 103.703 60.8485 103.54 60.875C103.377 60.8978 103.229 60.9186 103.097 60.9375C102.813 60.9792 102.565 61.0455 102.352 61.1364C102.14 61.2273 101.976 61.3504 101.858 61.5057C101.741 61.6572 101.682 61.8466 101.682 62.0739C101.682 62.4035 101.801 62.6553 102.04 62.8296C102.282 63 102.589 63.0853 102.96 63.0853Z" fill="white"/>
</g>
<defs>
<filter id="filter0_d_4_208" x="0" y="0" width="155" height="87" filterUnits="userSpaceOnUse" color-interpolation-filters="sRGB">
<feFlood flood-opacity="0" result="BackgroundImageFix"/>
<feColorMatrix in="SourceAlpha" type="matrix" values="0 0 0 0 0 0 0 0 0 0 0 0 0 0 0 0 0 0 127 0" result="hardAlpha"/>
<feOffset dy="4"/>
<feGaussianBlur stdDeviation="2"/>
<feComposite in2="hardAlpha" operator="out"/>
<feColorMatrix type="matrix" values="0 0 0 0 0 0 0 0 0 0 0 0 0 0 0 0 0 0 0.25 0"/>
<feBlend mode="normal" in2="BackgroundImageFix" result="effect1_dropShadow_4_208"/>
<feBlend mode="normal" in="SourceGraphic" in2="effect1_dropShadow_4_208" result="shape"/>
</filter>
</defs>
</svg>
