<svg width="39" height="36" viewBox="0 0 39 36" fill="none" xmlns="http://www.w3.org/2000/svg">
<path d="M16.7849 16.2834L34.6528 34.1515C35.1128 34.6115 35.853 34.6168 36.3077 34.1633L37.1628 33.3076C37.6169 32.8535 37.6116 32.1133 37.1516 31.6527L19.2837 13.7852M12.6725 20.4994L23.4998 9.67195M16.0046 2.17606L5.17723 13.0035M21.8344 8.83984L23.4999 10.5047C23.9598 10.9647 24.706 10.9647 25.1653 10.5047L26.8314 8.83925C27.2908 8.3793 27.2908 7.63312 26.8314 7.17376L18.5023 -1.15548C18.0423 -1.61484 17.2967 -1.61484 16.8368 -1.15548L15.1713 0.510606C14.7114 0.969971 14.7114 1.71615 15.1707 2.1761L16.8026 3.80744M6.80782 13.8021L5.1765 12.1708C4.71655 11.7108 3.97039 11.7108 3.51044 12.1708L1.84496 13.8363C1.38501 14.2962 1.38501 15.0418 1.84496 15.5018L10.1741 23.831C10.6335 24.291 11.3796 24.291 11.8396 23.831L13.5051 22.1655C13.965 21.7055 13.965 20.9594 13.5051 20.4994L11.8402 18.8345" stroke="white" stroke-width="2"/>
</svg>
