<svg width="71" height="71" viewBox="0 0 71 71" fill="none" xmlns="http://www.w3.org/2000/svg">
<g filter="url(#filter0_d_4_229)">
<rect x="4" width="63" height="63" rx="31.5" fill="#00578C" shape-rendering="crispEdges"/>
<path d="M49.3333 46V42.3333C49.3333 40.3884 48.5607 38.5232 47.1854 37.1479C45.8102 35.7726 43.9449 35 42 35H27.3333C25.3884 35 23.5231 35.7726 22.1479 37.1479C20.7726 38.5232 20 40.3884 20 42.3333V46M42 20.3333C42 24.3834 38.7168 27.6667 34.6667 27.6667C30.6166 27.6667 27.3333 24.3834 27.3333 20.3333C27.3333 16.2832 30.6166 13 34.6667 13C38.7168 13 42 16.2832 42 20.3333Z" stroke="white" stroke-width="2" stroke-linecap="round" stroke-linejoin="round"/>
</g>
<defs>
<filter id="filter0_d_4_229" x="0" y="0" width="71" height="71" filterUnits="userSpaceOnUse" color-interpolation-filters="sRGB">
<feFlood flood-opacity="0" result="BackgroundImageFix"/>
<feColorMatrix in="SourceAlpha" type="matrix" values="0 0 0 0 0 0 0 0 0 0 0 0 0 0 0 0 0 0 127 0" result="hardAlpha"/>
<feOffset dy="4"/>
<feGaussianBlur stdDeviation="2"/>
<feComposite in2="hardAlpha" operator="out"/>
<feColorMatrix type="matrix" values="0 0 0 0 0 0 0 0 0 0 0 0 0 0 0 0 0 0 0.25 0"/>
<feBlend mode="normal" in2="BackgroundImageFix" result="effect1_dropShadow_4_229"/>
<feBlend mode="normal" in="SourceGraphic" in2="effect1_dropShadow_4_229" result="shape"/>
</filter>
</defs>
</svg>
