<svg width="35" height="30" viewBox="0 0 35 30" fill="none" xmlns="http://www.w3.org/2000/svg">
<path d="M25 28.5V25.5C25 23.9087 24.3679 22.3826 23.2426 21.2574C22.1174 20.1321 20.5913 19.5 19 19.5H7C5.4087 19.5 3.88258 20.1321 2.75736 21.2574C1.63214 22.3826 1 23.9087 1 25.5V28.5M34 28.5V25.5C33.999 24.1706 33.5565 22.8792 32.742 21.8285C31.9276 20.7778 30.7872 20.0274 29.5 19.695M23.5 1.695C24.7906 2.02545 25.9346 2.77605 26.7515 3.82847C27.5684 4.88088 28.0118 6.17524 28.0118 7.5075C28.0118 8.83976 27.5684 10.1341 26.7515 11.1865C25.9346 12.2389 24.7906 12.9895 23.5 13.32M19 7.5C19 10.8137 16.3137 13.5 13 13.5C9.68629 13.5 7 10.8137 7 7.5C7 4.18629 9.68629 1.5 13 1.5C16.3137 1.5 19 4.18629 19 7.5Z" stroke="white" stroke-width="2" stroke-linecap="round" stroke-linejoin="round"/>
</svg>
