<svg width="40" height="40" viewBox="0 0 40 40" fill="none" xmlns="http://www.w3.org/2000/svg">
<path d="M38.2925 18.9838C38.2995 21.6665 37.6727 24.3128 36.4633 26.7073C35.0292 29.5767 32.8246 31.9901 30.0964 33.6773C27.3681 35.3645 24.224 36.2588 21.0163 36.2601C18.3336 36.2671 15.6873 35.6403 13.2928 34.4308L1.70752 38.2926L5.56927 26.7073C4.35979 24.3128 3.73302 21.6665 3.74002 18.9838C3.74126 15.776 4.63556 12.632 6.32276 9.90373C8.00995 7.17551 10.4234 4.97089 13.2928 3.53683C15.6873 2.32735 18.3336 1.70058 21.0163 1.70758H22.0325C26.269 1.9413 30.2703 3.72943 33.2705 6.7296C36.2707 9.72977 38.0588 13.7311 38.2925 17.9676V18.9838Z" stroke="white" stroke-width="2" stroke-linecap="round" stroke-linejoin="round"/>
</svg>
