<svg width="36" height="27" viewBox="0 0 36 27" fill="none" xmlns="http://www.w3.org/2000/svg">
<path d="M33.8092 5.25679C33.631 4.52004 33.2681 3.845 32.7572 3.29985C32.2463 2.75471 31.6054 2.35876 30.8993 2.15201C28.3195 1.5 18 1.5 18 1.5C18 1.5 7.68054 1.5 5.10067 2.2141C4.39458 2.42086 3.75371 2.8168 3.24279 3.36195C2.73187 3.9071 2.369 4.58214 2.19082 5.31889C1.71867 8.02868 1.48771 10.7776 1.50086 13.531C1.48403 16.3052 1.715 19.0751 2.19082 21.8053C2.38725 22.5192 2.75825 23.1685 3.26798 23.6907C3.77771 24.2128 4.40894 24.59 5.10067 24.7859C7.68054 25.5 18 25.5 18 25.5C18 25.5 28.3195 25.5 30.8993 24.7859C31.6054 24.5791 32.2463 24.1832 32.7572 23.638C33.2681 23.0929 33.631 22.4179 33.8092 21.6811C34.2777 18.9917 34.5086 16.2638 34.4991 13.531C34.516 10.7569 34.285 7.98698 33.8092 5.25679Z" stroke="white" stroke-width="2" stroke-linecap="round" stroke-linejoin="round"/>
<path d="M14.6252 18.6074L23.2497 13.531L14.6252 8.45472V18.6074Z" stroke="white" stroke-width="2" stroke-linecap="round" stroke-linejoin="round"/>
</svg>
